<?xml version="1.0" standalone="no"?><!DOCTYPE svg PUBLIC "-//W3C//DTD SVG 1.1//EN" "http://www.w3.org/Graphics/SVG/1.1/DTD/svg11.dtd"><svg t="1531456263754" class="icon" style="" viewBox="0 0 1024 1024" version="1.1" xmlns="http://www.w3.org/2000/svg" p-id="4127" xmlns:xlink="http://www.w3.org/1999/xlink" width="200" height="200"><defs><style type="text/css"></style></defs><path d="M827.6992 587.1616h51.8144v53.5552h-51.8144v-53.5552z m-168.3456 57.5488c38.8096 0 73.3184-12.288 94.9248-36.9664 25.9072-24.6784 34.5088-57.6512 34.5088-102.912s-12.9024-78.2336-34.5088-102.912c-25.9072-24.6784-56.0128-36.9664-99.2256-36.9664-21.504 0-43.1104 4.096-60.416 12.3904-12.9024 4.096-25.9072 12.3904-34.5088 24.6784-12.9024 12.3904-17.2032 24.6784-25.9072 36.9664-8.6016 20.5824-12.9024 41.1648-12.9024 69.9392 0 45.2608 12.9024 78.2336 34.5088 102.912 30.3104 20.5824 60.416 32.8704 103.5264 32.8704z m-17.2032-226.304c69.0176 0 90.624 24.6784 90.624 82.3296 0 61.7472-21.504 86.4256-90.624 86.4256-43.1104 0-60.416-24.6784-60.416-86.4256 0.1024-49.3568 34.5088-82.3296 60.416-82.3296z m-323.3792 57.6512L435.2 644.7104h60.3136V360.6528H435.2V529.408L318.7712 360.6528h-60.416v284.0576h60.416V476.0576z" p-id="4128" fill="#707070"></path><path d="M964.3008 202.24H59.6992C32.4608 202.24 5.12 220.9792 5.12 243.5072v533.1968c0 26.3168 19.456 45.056 46.7968 45.056h920.1664c27.3408 0 46.7968-18.7392 46.7968-45.056V243.5072c0-22.528-27.3408-41.2672-54.5792-41.2672z m0 566.9888H59.6992V254.7712h908.5952v514.3552h-3.9936v0.1024z" p-id="4129" fill="#707070"></path></svg>