<?xml version="1.0" standalone="no"?><!DOCTYPE svg PUBLIC "-//W3C//DTD SVG 1.1//EN" "http://www.w3.org/Graphics/SVG/1.1/DTD/svg11.dtd"><svg t="1530180493758" class="icon" style="" viewBox="0 0 1024 1024" version="1.1" xmlns="http://www.w3.org/2000/svg" p-id="2467" xmlns:xlink="http://www.w3.org/1999/xlink" width="200" height="200"><defs><style type="text/css"></style></defs><path d="M384 217.6 300.8 217.6l0 83.2L256 300.8 256 256 172.8 256c0 57.6 0 128 0 128l128 0c0 6.4 0 166.4 0 166.4L256 550.4 172.8 595.2l0 128 128-83.2 0 166.4L384 806.4c0-51.2 0-121.6 0-166.4 6.4-6.4 44.8-44.8 44.8-44.8L428.8 556.8 384 556.8 384 384l44.8 0L428.8 300.8 384 300.8 384 217.6z" p-id="2468" fill="#DAE0E6"></path><path d="M844.8 345.6 844.8 256l-166.4 0L678.4 217.6 595.2 217.6 595.2 256l-128 0 0 83.2 128 0L595.2 384l-128 0 0 83.2c76.8 0 140.8 0 211.2 0L678.4 512 467.2 512l0 83.2c76.8 0 211.2 0 211.2 0L678.4 768l-32 0 6.4 44.8 108.8 12.8 0-230.4 83.2 0L844.8 512l-83.2 0L761.6 467.2c25.6 0 57.6 0 83.2 0L844.8 384l-166.4 0L678.4 345.6 844.8 345.6z" p-id="2469" fill="#DAE0E6"></path><path d="M608 691.2C601.6 672 588.8 640 588.8 640l-121.6 0c12.8 38.4 44.8 83.2 44.8 83.2s0 44.8 0 44.8c32 0 128 0 128 0l0-64C633.6 704 614.4 697.6 608 691.2z" p-id="2470" fill="#DAE0E6"></path><path d="M512 0C230.4 0 0 230.4 0 512s230.4 512 512 512 512-230.4 512-512S793.6 0 512 0zM512 960c-249.6 0-448-198.4-448-448 0-249.6 198.4-448 448-448 249.6 0 448 198.4 448 448C960 761.6 761.6 960 512 960z" p-id="2471" fill="#DAE0E6"></path></svg>