<?xml version="1.0" standalone="no"?><!DOCTYPE svg PUBLIC "-//W3C//DTD SVG 1.1//EN" "http://www.w3.org/Graphics/SVG/1.1/DTD/svg11.dtd"><svg t="1530181106339" class="icon" style="" viewBox="0 0 1028 1024" version="1.1" xmlns="http://www.w3.org/2000/svg" p-id="12107" xmlns:xlink="http://www.w3.org/1999/xlink" width="128.5" height="128"><defs><style type="text/css"></style></defs><path d="M513.706667 1024C230.929067 1024 1.706667 794.773333 1.706667 511.978667 1.706667 229.230933 230.933333 0 513.706667 0s512 229.2352 512 511.978667c0 89.4592-23.0656 173.550933-63.415467 246.698666l-0.238933-0.213333c-5.870933 18.944-22.877867 33.045333-43.810134 33.045333-25.685333 0-46.536533-20.834133-46.536533-46.5664l0.426667-4.317866c10.389333-29.7344 21.4784-50.568533 21.4784-50.568534 25.629867-54.314667 40.3968-114.717867 40.3968-178.717866 0-231.752533-187.882667-419.618133-419.626667-419.618134-231.709867 0-419.601067 187.8656-419.601067 419.618134 0 231.7056 187.8912 419.515733 419.601067 419.515733 92.544 0 177.719467-30.301867 247.082667-81.0368 8.456533-8.9472 20.2752-14.634667 33.578666-14.634667 25.719467 0 46.536533 20.791467 46.536534 46.523734l-0.405334 4.317866c0 21.781333-13.597867 24.098133-35.6096 44.309334C722.602667 988.424533 622.685867 1024 513.706667 1024z m170.666666-725.333333h-341.333333c-23.552 0-42.666667 19.114667-42.666667 42.666666v341.333334c0 23.552 19.114667 42.666667 42.666667 42.666666h341.333333c23.552 0 42.666667-19.114667 42.666667-42.666666V341.333333c0-23.552-19.114667-42.666667-42.666667-42.666666z" fill="#DAE0E6" p-id="12108"></path></svg>